<?xml version="1.0" standalone="no"?>
<!DOCTYPE svg PUBLIC "-//W3C//DTD SVG 20010904//EN"
 "http://www.w3.org/TR/2001/REC-SVG-20010904/DTD/svg10.dtd">
<svg version="1.0" xmlns="http://www.w3.org/2000/svg"
 width="133.000000pt" height="133.000000pt" viewBox="0 0 133.000000 133.000000"
 preserveAspectRatio="xMidYMid meet">
<metadata>
Created by potrace 1.11, written by Peter Selinger 2001-2013
</metadata>
<g transform="translate(0.000000,133.000000) scale(0.100000,-0.100000)"
fill="#000000" stroke="none">
<path d="M690 1101 c0 -29 40 -151 49 -151 5 0 53 21 107 46 55 25 121 56 148
69 27 12 44 25 38 29 -6 3 -52 8 -104 11 -51 3 -126 7 -165 10 -67 5 -73 4
-73 -14z"/>
<path d="M599 784 c-79 -69 -159 -139 -176 -155 -18 -16 -35 -29 -39 -29 -7 0
-68 51 -149 124 -22 20 -45 36 -51 36 -7 0 -152 -418 -159 -460 0 -3 -7 -22
-14 -43 -7 -21 -10 -41 -7 -44 8 -8 1314 -8 1323 0 5 6 -15 166 -32 255 -1 10
-6 39 -9 66 -4 27 -13 85 -21 130 -7 44 -16 105 -20 134 -4 29 -12 52 -18 52
-7 -1 -63 -64 -125 -140 -62 -77 -117 -140 -121 -140 -5 0 -58 76 -117 170
-60 93 -112 170 -115 170 -4 0 -71 -57 -150 -126z"/>
</g>
</svg>
